<svg width="20" height="18" viewBox="0 0 20 18" fill="none" xmlns="http://www.w3.org/2000/svg">
<g clip-path="url(#clip0_424_111)">
<path fill-rule="evenodd" clip-rule="evenodd" d="M13.3575 5.28599L19.3536 6.0731C19.7676 6.12778 20.0547 6.47349 19.9903 6.84653C19.9668 6.99595 19.8887 7.13267 19.7715 7.23716L15.4336 11.0565L16.459 16.4491C16.502 16.6717 16.42 16.8866 16.2578 17.037C16.1504 17.1385 16.0078 17.2098 15.8418 17.2352C15.6797 17.2616 15.5098 17.2381 15.3633 17.1678L10 14.6209L4.63676 17.1678C4.51176 17.2264 4.37113 17.2538 4.23051 17.245C4.08988 17.2352 3.95511 17.1913 3.84183 17.1161C3.72855 17.0418 3.63871 16.9393 3.58597 16.8211C3.53324 16.703 3.51761 16.5741 3.54105 16.4491L4.56644 11.0565L0.228552 7.23716C0.084021 7.1102 0.00198977 6.93833 3.66479e-05 6.75669C-0.00191648 6.57603 0.0742554 6.40122 0.21488 6.27134C0.330115 6.16489 0.480505 6.09458 0.646521 6.0731L6.64261 5.28599L9.3223 0.379736C9.5098 0.0428217 9.96293 -0.0958502 10.336 0.0701654C10.4004 0.0994623 10.459 0.135595 10.5118 0.178564C10.5801 0.235204 10.6368 0.303564 10.6778 0.379736L13.3575 5.28599Z" fill="#C70000"/>
</g>
<defs>
<clipPath id="clip0_424_111">
<rect width="20" height="18" fill="white"/>
</clipPath>
</defs>
</svg>
