<svg width="20" height="18" viewBox="0 0 20 18" fill="none" xmlns="http://www.w3.org/2000/svg">
<g clip-path="url(#clip0_424_113)">
<path d="M19.3536 6.07294L13.358 5.2861L10.6778 0.379566C10.6046 0.245228 10.4841 0.136478 10.3354 0.0703754C9.96227 -0.0959479 9.50887 0.0426549 9.32232 0.379566L6.64213 5.2861L0.646516 6.07294C0.481218 6.09426 0.330088 6.16463 0.214379 6.27125C0.0744931 6.40108 -0.00259025 6.57575 6.64642e-05 6.75687C0.00272317 6.938 0.0849026 7.11076 0.228547 7.2372L4.56645 11.0562L3.5416 16.449C3.51757 16.5744 3.53294 16.7034 3.58598 16.8214C3.63901 16.9393 3.72759 17.0415 3.84166 17.1163C3.95573 17.1911 4.09074 17.2356 4.23137 17.2447C4.37199 17.2537 4.51262 17.227 4.63729 17.1676L10 14.6215L15.3628 17.1676C15.5092 17.2379 15.6792 17.2614 15.8422 17.2358C16.2531 17.1718 16.5293 16.82 16.4585 16.449L15.4336 11.0562L19.7715 7.2372C19.8896 7.13272 19.9675 6.99625 19.9912 6.84698C20.0549 6.47382 19.7668 6.12838 19.3536 6.07294ZM13.6083 10.5189L14.4607 15.0032L10 12.8879L5.53935 15.0054L6.39182 10.521L2.78359 7.34382L7.77088 6.68919L10 2.61L12.2292 6.68919L17.2165 7.34382L13.6083 10.5189Z" fill="#C70000"/>
</g>
<defs>
<clipPath id="clip0_424_113">
<rect width="20" height="18" fill="white"/>
</clipPath>
</defs>
</svg>
